<svg width="48" height="48" viewBox="0 0 48 48" fill="none" xmlns="http://www.w3.org/2000/svg">
<path d="M44.25 10.5H39V3.75C38.9982 3.15381 38.7606 2.58255 38.339 2.16098C37.9175 1.73941 37.3462 1.50178 36.75 1.5H11.25C10.6538 1.50178 10.0825 1.73941 9.66098 2.16098C9.2394 2.58255 9.00178 3.15381 9 3.75V10.5H3.75C3.15381 10.5018 2.58255 10.7394 2.16098 11.161C1.73941 11.5825 1.50178 12.1538 1.5 12.75V36.75C1.50178 37.3462 1.73941 37.9175 2.16098 38.339C2.58255 38.7606 3.15381 38.9982 3.75 39H18.615L18.1125 42H15.75C15.6337 42.0008 15.5192 42.0283 15.4151 42.0803C15.3111 42.1323 15.2204 42.2075 15.15 42.3L12.9 45.3C12.8166 45.412 12.766 45.545 12.7541 45.6841C12.7422 45.8233 12.7693 45.963 12.8325 46.0875C12.8932 46.2125 12.9882 46.3176 13.1064 46.3906C13.2246 46.4637 13.3611 46.5016 13.5 46.5H34.5C34.6389 46.5016 34.7754 46.4637 34.8936 46.3906C35.0118 46.3176 35.1068 46.2125 35.1675 46.0875C35.2307 45.963 35.2578 45.8233 35.2459 45.6841C35.234 45.545 35.1834 45.412 35.1 45.3L32.85 42.3C32.7796 42.2075 32.6889 42.1323 32.5849 42.0803C32.4809 42.0283 32.3663 42.0008 32.25 42H29.8875L29.385 39H44.25C44.8462 38.9982 45.4175 38.7606 45.839 38.339C46.2606 37.9175 46.4982 37.3462 46.5 36.75V12.75C46.4982 12.1538 46.2606 11.5825 45.839 11.161C45.4175 10.7394 44.8462 10.5018 44.25 10.5ZM10.5 3.75C10.5 3.55109 10.579 3.36032 10.7197 3.21967C10.8603 3.07902 11.0511 3 11.25 3H36.75C36.9489 3 37.1397 3.07902 37.2803 3.21967C37.421 3.36032 37.5 3.55109 37.5 3.75V7.5H10.5V3.75ZM10.5 9H37.5V26.25C37.5 26.4489 37.421 26.6397 37.2803 26.7803C37.1397 26.921 36.9489 27 36.75 27H11.25C11.0511 27 10.8603 26.921 10.7197 26.7803C10.579 26.6397 10.5 26.4489 10.5 26.25V9ZM31.875 43.5L33 45H15L16.125 43.5H31.875ZM19.635 42L20.1375 39H27.8625L28.365 42H19.635ZM45 36.75C45 36.9489 44.921 37.1397 44.7803 37.2803C44.6397 37.421 44.4489 37.5 44.25 37.5H3.75C3.55109 37.5 3.36032 37.421 3.21967 37.2803C3.07902 37.1397 3 36.9489 3 36.75V34.5H45V36.75ZM45 33H3V12.75C3 12.5511 3.07902 12.3603 3.21967 12.2197C3.36032 12.079 3.55109 12 3.75 12H9V26.25C9.00178 26.8462 9.2394 27.4175 9.66098 27.839C10.0825 28.2606 10.6538 28.4982 11.25 28.5H14.25V30H9V31.5H15C15.1989 31.5 15.3897 31.421 15.5303 31.2803C15.671 31.1397 15.75 30.9489 15.75 30.75V28.5H20.25V31.5H21.75V28.5H26.25V31.5H27.75V28.5H32.25V30.75C32.25 30.9489 32.329 31.1397 32.4697 31.2803C32.6103 31.421 32.8011 31.5 33 31.5H39V30H33.75V28.5H36.75C37.3462 28.4982 37.9175 28.2606 38.339 27.839C38.7606 27.4175 38.9982 26.8462 39 26.25V12H44.25C44.4489 12 44.6397 12.079 44.7803 12.2197C44.921 12.3603 45 12.5511 45 12.75V33Z" fill="#80A948"/>
<path d="M34.5 4.5H36V6H34.5V4.5Z" fill="#80A948"/>
<path d="M31.5 4.5H33V6H31.5V4.5Z" fill="#80A948"/>
<path d="M28.5 4.5H30V6H28.5V4.5Z" fill="#80A948"/>
<path d="M19.7196 12.9688L15.2196 17.4688C15.079 17.6094 15 17.8001 15 17.999C15 18.1979 15.079 18.3886 15.2196 18.5293L19.7196 23.0293L20.7801 21.9688L16.8103 17.999L20.7801 14.0293L19.7196 12.9688Z" fill="#80A948"/>
<path d="M28.2793 12.9688L27.2188 14.0293L31.1885 17.999L27.2188 21.9688L28.2793 23.0293L32.7792 18.5293C32.9199 18.3886 32.9988 18.1979 32.9988 17.999C32.9988 17.8001 32.9199 17.6094 32.7792 17.4688L28.2793 12.9688Z" fill="#80A948"/>
<path d="M21.0391 24.5L25.5359 10.9953L26.9594 11.4693L22.4626 24.974L21.0391 24.5Z" fill="#80A948"/>
</svg>
