<svg width="48" height="48" viewBox="0 0 48 48" fill="none" xmlns="http://www.w3.org/2000/svg">
<path d="M24 14.25C24.5933 14.25 25.1734 14.0741 25.6667 13.7444C26.1601 13.4148 26.5446 12.9462 26.7716 12.3981C26.9987 11.8499 27.0581 11.2467 26.9424 10.6647C26.8266 10.0828 26.5409 9.54824 26.1213 9.12868C25.7018 8.70912 25.1672 8.4234 24.5853 8.30765C24.0033 8.19189 23.4001 8.2513 22.852 8.47836C22.3038 8.70543 21.8352 9.08994 21.5056 9.58329C21.1759 10.0766 21 10.6567 21 11.25C21 12.0457 21.3161 12.8087 21.8787 13.3713C22.4413 13.9339 23.2044 14.25 24 14.25ZM24 9.75C24.2967 9.75 24.5867 9.83798 24.8334 10.0028C25.08 10.1676 25.2723 10.4019 25.3858 10.676C25.4994 10.9501 25.5291 11.2517 25.4712 11.5426C25.4133 11.8336 25.2704 12.1009 25.0607 12.3107C24.8509 12.5204 24.5836 12.6633 24.2926 12.7212C24.0017 12.7791 23.7001 12.7494 23.426 12.6358C23.1519 12.5223 22.9176 12.33 22.7528 12.0834C22.588 11.8367 22.5 11.5467 22.5 11.25C22.5 10.8522 22.658 10.4706 22.9393 10.1893C23.2206 9.90804 23.6022 9.75 24 9.75Z" fill="#80A948"/>
<path d="M23.25 21.75H24.75V23.25H23.25V21.75Z" fill="#80A948"/>
<path d="M23.25 24.75H24.75V30H23.25V24.75Z" fill="#80A948"/>
<path d="M43.2363 42.2775C43.1665 42.1915 43.0785 42.122 42.9787 42.074C42.8788 42.026 42.7696 42.0008 42.6588 42H41.9988V21.75C41.9988 21.5511 41.9198 21.3604 41.7791 21.2197C41.6385 21.0791 41.4477 21 41.2488 21H36.5088L35.9913 17.1525C35.9763 17.0314 35.9315 16.9159 35.8608 16.8164C35.7901 16.7169 35.6958 16.6366 35.5863 16.5825L31.4688 14.52C31.1913 7.44755 24.7638 1.91255 24.4863 1.68005C24.3505 1.56385 24.1776 1.5 23.9988 1.5C23.82 1.5 23.6472 1.56385 23.5113 1.68005C23.2338 1.91255 16.8063 7.44755 16.5288 14.52L12.4113 16.5825C12.3019 16.6366 12.2075 16.7169 12.1369 16.8164C12.0662 16.9159 12.0213 17.0314 12.0063 17.1525L11.4888 21H6.74881C6.5499 21 6.35913 21.0791 6.21848 21.2197C6.07783 21.3604 5.99881 21.5511 5.99881 21.75V42H5.33881C5.22803 42.0008 5.11879 42.026 5.01893 42.074C4.91908 42.122 4.8311 42.1915 4.76131 42.2775C4.6903 42.3644 4.6399 42.4662 4.61392 42.5753C4.58794 42.6844 4.58705 42.798 4.61131 42.9075L5.26381 45.9075C5.2999 46.0756 5.39259 46.2261 5.52639 46.3339C5.66018 46.4418 5.82696 46.5004 5.99881 46.5H41.9988C42.1707 46.5004 42.3374 46.4418 42.4712 46.3339C42.605 46.2261 42.6977 46.0756 42.7338 45.9075L43.3863 42.9075C43.4106 42.798 43.4097 42.6844 43.3837 42.5753C43.3577 42.4662 43.3073 42.3644 43.2363 42.2775ZM31.4613 16.1925L34.5588 17.745L35.8938 27.75H34.2438L32.1888 22.9575C32.1314 22.822 32.0354 22.7063 31.9127 22.625C31.79 22.5436 31.646 22.5002 31.4988 22.5H30.2463C30.9633 20.4698 31.3728 18.3438 31.4613 16.1925ZM23.9988 3.27005C25.5063 4.70255 29.9988 9.46505 29.9988 15C30.0558 17.9288 29.4373 20.8314 28.1913 23.4825C27.5388 20.685 25.9338 18.75 23.9988 18.75C22.0638 18.75 20.4588 20.685 19.8063 23.4825C18.5603 20.8314 17.9418 17.9288 17.9988 15C17.9988 9.47255 22.4913 4.71005 23.9988 3.27005ZM23.9988 31.9875C23.0463 31.08 20.9988 28.815 20.9988 26.25C20.9988 22.7175 22.5813 20.25 23.9988 20.25C25.4163 20.25 26.9988 22.7175 26.9988 26.25C26.9988 28.815 24.9513 31.08 23.9988 31.9875ZM31.4988 31.5V39H16.4988V31.5H21.5463C22.1329 32.2613 22.7964 32.96 23.5263 33.585C23.6606 33.6919 23.8272 33.7501 23.9988 33.7501C24.1704 33.7501 24.337 33.6919 24.4713 33.585C25.2012 32.96 25.8647 32.2613 26.4513 31.5H31.4988ZM13.4388 17.745L16.5363 16.1925C16.6248 18.3438 17.0344 20.4698 17.7513 22.5H16.4988C16.3516 22.5002 16.2077 22.5436 16.085 22.625C15.9623 22.7063 15.8662 22.822 15.8088 22.9575L13.7538 27.75H12.1038L13.4388 17.745ZM7.49881 22.5H11.2938L10.5063 28.4025C10.4924 28.5084 10.5013 28.6161 10.5323 28.7182C10.5633 28.8204 10.6159 28.9148 10.6863 28.995C10.756 29.0758 10.8424 29.1404 10.9395 29.1844C11.0366 29.2285 11.1422 29.2508 11.2488 29.25H14.2488C14.396 29.2499 14.54 29.2065 14.6627 29.1251C14.7853 29.0438 14.8814 28.9281 14.9388 28.7925L16.9938 24H18.3813C18.7006 24.6489 19.0797 25.2666 19.5138 25.845C19.5063 25.98 19.4988 26.115 19.4988 26.25C19.5294 27.5692 19.8932 28.8592 20.5563 30H15.7488C15.5499 30 15.3591 30.0791 15.2185 30.2197C15.0778 30.3604 14.9988 30.5511 14.9988 30.75V39.75C14.9988 39.949 15.0778 40.1397 15.2185 40.2804C15.3591 40.421 15.5499 40.5 15.7488 40.5H32.2488C32.4477 40.5 32.6385 40.421 32.7791 40.2804C32.9198 40.1397 32.9988 39.949 32.9988 39.75V30.75C32.9988 30.5511 32.9198 30.3604 32.7791 30.2197C32.6385 30.0791 32.4477 30 32.2488 30H27.4413C28.1044 28.8592 28.4682 27.5692 28.4988 26.25C28.4988 26.115 28.4913 25.98 28.4838 25.845C28.9179 25.2666 29.297 24.6489 29.6163 24H31.0038L33.0588 28.7925C33.1162 28.9281 33.2123 29.0438 33.335 29.1251C33.4577 29.2065 33.6016 29.2499 33.7488 29.25H36.7488C36.8554 29.2508 36.961 29.2285 37.0581 29.1844C37.1552 29.1404 37.2416 29.0758 37.3113 28.995C37.3818 28.9148 37.4343 28.8204 37.4653 28.7182C37.4964 28.6161 37.5052 28.5084 37.4913 28.4025L36.7038 22.5H40.4988V42H26.2488C26.0499 42 25.8591 42.0791 25.7185 42.2197C25.5778 42.3604 25.4988 42.5511 25.4988 42.75H22.4988C22.4988 42.5511 22.4198 42.3604 22.2791 42.2197C22.1385 42.0791 21.9477 42 21.7488 42H7.49881V22.5ZM41.3988 45H6.59881L6.27631 43.5H20.9988C20.9988 43.699 21.0778 43.8897 21.2185 44.0304C21.3591 44.171 21.5499 44.25 21.7488 44.25H26.2488C26.4477 44.25 26.6385 44.171 26.7791 44.0304C26.9198 43.8897 26.9988 43.699 26.9988 43.5H41.7213L41.3988 45Z" fill="#80A948"/>
<path d="M34.5 33H39V34.5H34.5V33Z" fill="#80A948"/>
<path d="M35.25 40.5H38.25C38.4489 40.5 38.6397 40.421 38.7803 40.2803C38.921 40.1397 39 39.9489 39 39.75V36.75C39 36.5511 38.921 36.3603 38.7803 36.2197C38.6397 36.079 38.4489 36 38.25 36H35.25C35.0511 36 34.8603 36.079 34.7197 36.2197C34.579 36.3603 34.5 36.5511 34.5 36.75V39.75C34.5 39.9489 34.579 40.1397 34.7197 40.2803C34.8603 40.421 35.0511 40.5 35.25 40.5ZM36 37.5H37.5V39H36V37.5Z" fill="#80A948"/>
<path d="M9 33H13.5V34.5H9V33Z" fill="#80A948"/>
<path d="M12.75 36H9.75C9.55109 36 9.36032 36.079 9.21967 36.2197C9.07902 36.3603 9 36.5511 9 36.75V39.75C9 39.9489 9.07902 40.1397 9.21967 40.2803C9.36032 40.421 9.55109 40.5 9.75 40.5H12.75C12.9489 40.5 13.1397 40.421 13.2803 40.2803C13.421 40.1397 13.5 39.9489 13.5 39.75V36.75C13.5 36.5511 13.421 36.3603 13.2803 36.2197C13.1397 36.079 12.9489 36 12.75 36ZM12 39H10.5V37.5H12V39Z" fill="#80A948"/>
<path d="M33 6H34.5V4.5H36V3H34.5V1.5H33V3H31.5V4.5H33V6Z" fill="#80A948"/>
<path d="M39 10.5H40.5V9H42V7.5H40.5V6H39V7.5H37.5V9H39V10.5Z" fill="#80A948"/>
<path d="M13.5 6H15V4.5H16.5V3H15V1.5H13.5V3H12V4.5H13.5V6Z" fill="#80A948"/>
<path d="M7.5 10.5H9V9H10.5V7.5H9V6H7.5V7.5H6V9H7.5V10.5Z" fill="#80A948"/>
</svg>
